# xmcd
#
# Track frame offsets: 
#        150
#        21915
#        43202
#        64227
#        87400
#        107252
#        124467
#        141130
#        164407
#        181765
#        197747
#        213340
#        225827
#        247550
#        264040
#
# Disc length: 3741 seconds
#
# Revision: 7
# Processed by: cddbd v1.5.2PL0 Copyright (c) Steve Scherf et al.
# Submitted via: ExactAudioCopy v1.1
#
DISCID=c10e9b0f
DTITLE=周华健 - 滚石24K 24Bit珍藏版金碟系列
DYEAR=1997
DGENRE=Pop
TTITLE0=我是真的付出我的爱
TTITLE1=让我欢喜让我忧
TTITLE2=你喜欢的会有几个
TTITLE3=其实不想走
TTITLE4=怕黑
TTITLE5=花心
TTITLE6=寂寞的眼
TTITLE7=寡妇村传奇
TTITLE8=我的情歌
TTITLE9=最真的梦
TTITLE10=明天我要嫁给你
TTITLE11=摆渡人的歌
TTITLE12=再爱我吧
TTITLE13=小天堂
TTITLE14=爱相随
EXTD=Zhou Hua Jian - T1\n YEAR: 1997
EXTT0=
EXTT1=
EXTT2=
EXTT3=
EXTT4=
EXTT5=
EXTT6=
EXTT7=
EXTT8=
EXTT9=
EXTT10=
EXTT11=
EXTT12=
EXTT13=
EXTT14=
PLAYORDER=
